<svg id="圖層_1" data-name="圖層 1" xmlns="http://www.w3.org/2000/svg" viewBox="0 0 103 38"><defs><style>.cls-1{fill:#fff;}.cls-2{fill:#3e3d3b;}.cls-3{fill:#ff3838;}</style></defs><title>Menu_logo</title><path class="cls-1" d="M39.92,36.34v-8h5.94v1.35H41.54v1.78h4v1.35h-4V35H46v1.35Z"/><path class="cls-1" d="M50.28,36.34v-8h1.53v8Z"/><path class="cls-1" d="M59.65,34.5l1.53.25A2.57,2.57,0,0,1,60.25,36a2.73,2.73,0,0,1-1.6.44,2.61,2.61,0,0,1-2.23-1,3.32,3.32,0,0,1-.58-2,3.17,3.17,0,0,1,.76-2.26,2.46,2.46,0,0,1,1.9-.82,2.59,2.59,0,0,1,2,.86,3.78,3.78,0,0,1,.72,2.62H57.41A1.54,1.54,0,0,0,57.79,35a1.14,1.14,0,0,0,.88.38,1,1,0,0,0,.61-.2A1.27,1.27,0,0,0,59.65,34.5Zm.08-1.5a1.52,1.52,0,0,0-.34-1,1.07,1.07,0,0,0-.8-.34,1.05,1.05,0,0,0-.83.36,1.5,1.5,0,0,0-.32,1Z"/><path class="cls-1" d="M70.47,32.26,69,32.53a1.12,1.12,0,0,0-.35-.68,1.05,1.05,0,0,0-.7-.23A1.11,1.11,0,0,0,67,32a2.05,2.05,0,0,0-.34,1.32A2.39,2.39,0,0,0,67,34.8a1.15,1.15,0,0,0,.93.42,1,1,0,0,0,.72-.25,1.43,1.43,0,0,0,.39-.85l1.51.26a2.67,2.67,0,0,1-.9,1.56,2.74,2.74,0,0,1-1.79.53,2.63,2.63,0,0,1-2-.8,3.1,3.1,0,0,1-.75-2.22,3.11,3.11,0,0,1,.76-2.24,2.72,2.72,0,0,1,2-.8,2.8,2.8,0,0,1,1.68.46A2.49,2.49,0,0,1,70.47,32.26Z"/><path class="cls-1" d="M77.2,30.54v1.23h-1V34.1a5.75,5.75,0,0,0,0,.83.3.3,0,0,0,.14.19.35.35,0,0,0,.26.08,2.25,2.25,0,0,0,.62-.15l.13,1.19a3,3,0,0,1-1.22.23,1.71,1.71,0,0,1-.74-.14A1,1,0,0,1,74.9,36a1.29,1.29,0,0,1-.22-.59,9.73,9.73,0,0,1,0-1.08V31.77H74V30.54h.7V29.39l1.54-.89v2Z"/><path class="cls-1" d="M81.17,29.76V28.34h1.54v1.42Zm0,6.58v-5.8h1.54v5.8Z"/><path class="cls-1" d="M86.83,33.36a3,3,0,0,1,.38-1.48,2.45,2.45,0,0,1,1.07-1.09,3.06,3.06,0,0,1,1.54-.38,2.89,2.89,0,0,1,2.15.86,3.24,3.24,0,0,1,0,4.34,2.9,2.9,0,0,1-2.14.86,3.33,3.33,0,0,1-1.52-.36,2.47,2.47,0,0,1-1.1-1A3.55,3.55,0,0,1,86.83,33.36Zm1.57.08a1.9,1.9,0,0,0,.41,1.32,1.33,1.33,0,0,0,1,.46,1.25,1.25,0,0,0,1-.46,2.33,2.33,0,0,0,0-2.64,1.32,1.32,0,0,0-2,0A2,2,0,0,0,88.4,33.44Z"/><path class="cls-1" d="M102.2,36.34h-1.54v-3a4.9,4.9,0,0,0-.09-1.21.91.91,0,0,0-.32-.43,1,1,0,0,0-.54-.15,1.28,1.28,0,0,0-.71.21,1,1,0,0,0-.43.58,5,5,0,0,0-.12,1.34V36.3H96.91V30.5h1.43v.86a2.31,2.31,0,0,1,1.91-1,2.12,2.12,0,0,1,.93.19,1.43,1.43,0,0,1,.63.46,1.55,1.55,0,0,1,.3.65,4.19,4.19,0,0,1,.09,1Z"/><path class="cls-1" d="M84,10.43h1.4V6.84H101v3.64h1.42a6.68,6.68,0,0,1-.09-1.26V7.57a16.64,16.64,0,0,1,.09-2,20,20,0,0,1-2.45.09H93.65V3.47a12.63,12.63,0,0,1,.11-1.63H92.15a12.63,12.63,0,0,1,.11,1.63V5.65h-2.2a24.29,24.29,0,0,0-2.52-3.44l-1.19.64a14.58,14.58,0,0,1,2.21,2.8H86.31A17.85,17.85,0,0,1,84,5.56a13.12,13.12,0,0,1,.09,1.77V9.09A9.94,9.94,0,0,1,84,10.43Z"/><polygon class="cls-1" points="102.65 1.54 97.22 2.42 96.18 6.35 102.65 1.54"/><path class="cls-1" d="M56.73,9.84a10.28,10.28,0,0,1,2,.11V8.65a9.57,9.57,0,0,1-2,.13h-4V7.26h2.84a10.22,10.22,0,0,1,1.83.11V6.14a11.24,11.24,0,0,1-1.83.11H52.74V4.79h3.57a11.25,11.25,0,0,1,1.92.11V3.62a8.82,8.82,0,0,1-1.92.13H54.85a11.59,11.59,0,0,0,1-1.83l-1.3-.37a9.88,9.88,0,0,1-1.11,2.2H51a13.5,13.5,0,0,0-1.26-2.22L48.5,2a7.87,7.87,0,0,1,1.15,1.8h-1.3a9,9,0,0,1-1.94-.13V4.9a11.42,11.42,0,0,1,1.94-.11h3.19V6.25h0v1h0V8.78H48a9.57,9.57,0,0,1-2-.13V10a10.28,10.28,0,0,1,2-.11Z"/><path class="cls-1" d="M43.74,4a9.9,9.9,0,0,1,1.54,0V2.65a7.22,7.22,0,0,1-1.54.11H41.36a7,7,0,0,1-1.52-.11V4a9.64,9.64,0,0,1,1.52,0Z"/><path class="cls-1" d="M54.79,11a12.26,12.26,0,0,1,2.31,2l.9-.75a15.88,15.88,0,0,0-2.35-1.9Z"/><path class="cls-1" d="M48.94,6.25a11.24,11.24,0,0,1-1.83-.11V7.37a10.22,10.22,0,0,1,1.83-.11h1.29v-1Z"/><path class="cls-1" d="M45.11,8.78a8.28,8.28,0,0,1-1.57.09h-2A8.28,8.28,0,0,1,40,8.78v1.37a10.34,10.34,0,0,1,1.57-.09h2a10.34,10.34,0,0,1,1.57.09Z"/><path class="cls-1" d="M45.11,16.81a15.4,15.4,0,0,1,.06-1.92A10.39,10.39,0,0,1,43.7,15H41.27a12.58,12.58,0,0,1-1.5-.09,12.14,12.14,0,0,1,.11,2v2.85a14.42,14.42,0,0,1-.13,2.18h1.34v-1.3h2.85v.8h1.25a16.53,16.53,0,0,1-.08-1.86Zm-1.17,2.71H41.09V16.08h2.85Z"/><path class="cls-1" d="M58.73,17.89a6.84,6.84,0,0,1-.44,1.89.6.6,0,0,1-.44.36,2,2,0,0,1-.71-.4A6.58,6.58,0,0,1,56,18.31a11.84,11.84,0,0,0,1.52-1.72c.33-.4.48-.6.73-.86L57.1,15a7.66,7.66,0,0,1-1.68,2.23,12.85,12.85,0,0,1-.86-2.56H57.1a8.78,8.78,0,0,1,1.7.11V13.39a11.16,11.16,0,0,1-2,.15H54.38a19.49,19.49,0,0,1-.2-2.28,3.47,3.47,0,0,1,.07-.79H52.87a8.26,8.26,0,0,0,.11.82c.06,1,.13,1.58.22,2.25H49.89V12a21.45,21.45,0,0,0,2.45-.84l-.84-.91a13.44,13.44,0,0,1-5.45,1.42,3.45,3.45,0,0,1,.49,1,19.65,19.65,0,0,0,2.14-.4v1.39H47.4a8.28,8.28,0,0,1-1.65-.11v1.34a12.18,12.18,0,0,1,1.91-.13h1v2.18a16.88,16.88,0,0,1-3,.47l.34,1.2L48.68,18v2c0,.42-.18.56-.66.56a9.39,9.39,0,0,1-1.75-.2,4,4,0,0,1,.29,1.28,12.23,12.23,0,0,0,1.48.08c1.41,0,1.85-.37,1.85-1.58V17.73a27.65,27.65,0,0,0,2.85-.88l-.05-1.1c-1,.33-1.48.51-1.54.51-.42.13-.64.19-1.26.35V14.69h3.53A16.76,16.76,0,0,0,54.54,18a13.76,13.76,0,0,1-3.81,2.23,4,4,0,0,1,.44.48c.33.42.33.42.42.55A18.44,18.44,0,0,0,55.07,19c1,1.58,2.07,2.46,3,2.46s1.3-.81,1.72-2.86A4.09,4.09,0,0,1,58.73,17.89Z"/><path class="cls-1" d="M44.11,7a9.82,9.82,0,0,1,1.53.09V5.72A9,9,0,0,1,44,5.83H40.81a9.49,9.49,0,0,1-1.68-.11V7.13A10.56,10.56,0,0,1,40.81,7Z"/><path class="cls-1" d="M41.49,12a10.34,10.34,0,0,1-1.57-.09v1.36a11.8,11.8,0,0,1,1.57-.08h2a11.8,11.8,0,0,1,1.57.08v-1.4a10.34,10.34,0,0,1-1.57.09Z"/><path class="cls-1" d="M80.74,16.52a22.39,22.39,0,0,1-.39,2.71c-.11.49-.18.64-.31.64a5.71,5.71,0,0,1-.9-2.34A46.82,46.82,0,0,1,78.5,8a41.43,41.43,0,0,1,.15-5.14A18.9,18.9,0,0,1,76.16,3H65.64a21,21,0,0,1-2.51-.13,22.48,22.48,0,0,1,.17,3.48c0,8.47-.53,11.58-2.49,14.47A4.3,4.3,0,0,1,62,21.92c2-3.15,2.69-6.75,2.69-14.75V4.24H77.08V7.15a66.29,66.29,0,0,0,.49,9.55c.46,2.95,1.48,5,2.47,5a1.23,1.23,0,0,0,1.06-.82,9.63,9.63,0,0,0,.75-3.26A6.09,6.09,0,0,1,80.74,16.52Z"/><path class="cls-1" d="M74.79,16.23l-1.08.47a11.13,11.13,0,0,1,.88,1.63c-1.36.24-1.87.31-3.17.46V15.44h0V14.29h0V10.77h2.73v3.52H72.73v1.15h1a13.1,13.1,0,0,1,1.72.07,9,9,0,0,1-.09-1.64V11.32a13.12,13.12,0,0,1,.09-1.77,13.33,13.33,0,0,1-2,.09h-2V7.3A32.49,32.49,0,0,0,76,6.51L75.1,5.3a6.36,6.36,0,0,1-2.1.57,36.48,36.48,0,0,1-7.3.62,5.15,5.15,0,0,1,.55,1.19,31.11,31.11,0,0,0,3.86-.22V9.64H68.18a16.64,16.64,0,0,1-2-.09c0,.64.07,1.08.07,1.85v2.43a12.39,12.39,0,0,1-.09,1.72,14.81,14.81,0,0,1,2-.11h2v3.48c-1.61.18-4,.33-4.81.33h-.62L65,20.69a6.67,6.67,0,0,1,1-.13,80,80,0,0,0,9-1.17,18,18,0,0,1,.78,2L77,20.86A31.85,31.85,0,0,0,74.79,16.23Zm-4.67-1.94H67.49V10.77h2.63Z"/><path class="cls-1" d="M100.55,19.87H93.63V17.05h5.49a12.14,12.14,0,0,1,2,.11V15.68a12.14,12.14,0,0,1-2,.11H93.63V13.72h0V12.57H88.76V9.88h8.82v2.69H95v1.15h1.88a19.51,19.51,0,0,1,2.16.09A13.64,13.64,0,0,1,98.92,12V10.39A14.71,14.71,0,0,1,99,8.63a14,14,0,0,1-1.83.08h-8a16.79,16.79,0,0,1-1.88-.08,14.14,14.14,0,0,1,.07,1.72V12a14.24,14.24,0,0,1-.07,1.85,13.33,13.33,0,0,1,2-.09h2.93v2.07h-5a12.14,12.14,0,0,1-2-.11V17.2a12.14,12.14,0,0,1,2-.11h5v2.82H85.85a15.49,15.49,0,0,1-2.36-.13v1.54a15.51,15.51,0,0,1,2.36-.15h14.7a14.73,14.73,0,0,1,2.3.15V19.74A16,16,0,0,1,100.55,19.87Z"/><path class="cls-2" d="M24.2,10A15.93,15.93,0,0,0,4.4,10,11.23,11.23,0,0,0,.15,18.63,11,11,0,0,0,3,25.86l.1,5.83a1.37,1.37,0,0,0,1.37,1.37h0A2.07,2.07,0,0,0,5,33l6.32-2.54a20.13,20.13,0,0,0,3,.25c6.77,0,14.13-4.59,14.13-12A11.16,11.16,0,0,0,24.2,10Zm1.17,1.17a15.93,15.93,0,0,0-19.8,0A11.26,11.26,0,0,0,1.33,19.8,11,11,0,0,0,4.16,27l.1,5.83A1.37,1.37,0,0,0,5.63,34.2h0a1.78,1.78,0,0,0,.51-.1l6.32-2.54a20.13,20.13,0,0,0,3,.25c6.77,0,14.13-4.59,14.13-12a11.15,11.15,0,0,0-4.25-8.62ZM14.32,29a17.93,17.93,0,0,1-3.19-.28,1.17,1.17,0,0,0-1,.07l-5.5,2.26-.07-4.88A1.54,1.54,0,0,0,4.13,25a9.44,9.44,0,0,1-2.78-6.51,9.79,9.79,0,0,1,3.7-7.4,15.17,15.17,0,0,1,18.55,0,9.85,9.85,0,0,1,3.68,7.4C27.28,25.23,20.25,29,14.32,29Z"/><path class="cls-1" d="M23.59,11.12a15.16,15.16,0,0,0-18.54,0,9.79,9.79,0,0,0-3.69,7.39A9.43,9.43,0,0,0,4.14,25a1.55,1.55,0,0,1,.43,1.14L4.64,31l5.52-2.21a1.14,1.14,0,0,1,1-.08,17.93,17.93,0,0,0,3.19.28c5.93,0,13-3.8,13-10.52A9.79,9.79,0,0,0,23.59,11.12Z"/><path class="cls-3" d="M21.08,18.4a6.68,6.68,0,0,0-6.14-6.64H13.87A6.68,6.68,0,0,0,7.73,18.4a6.55,6.55,0,0,0,1.6,4.33h0l.38.37.37.38h0A6.55,6.55,0,0,0,13.87,25h1.07A6.68,6.68,0,0,0,21.08,18.4ZM8.8,18.4a5.61,5.61,0,0,1,5.07-5.58v5.36L10.08,22A5.57,5.57,0,0,1,8.8,18.4Zm2,4.33,3-3V24a5.55,5.55,0,0,1-3-1.27ZM14.94,24V12.82a5.61,5.61,0,0,1,0,11.17Z"/></svg>