<svg id="Layer_1" data-name="Layer 1" xmlns="http://www.w3.org/2000/svg" viewBox="0 0 195.19 241.7"><defs><style>.cls-1{fill:#ff3838;}.cls-2{fill:#3d3b38;}</style></defs><title>logo3</title><polygon class="cls-1" points="169.1 0 73.44 15.54 54.98 84.78 169.1 0"/><polygon class="cls-2" points="50.66 100.75 40.33 139.7 163.93 49.7 106.59 59.2 50.66 100.75"/><path class="cls-2" d="M55.29,201.33a8.67,8.67,0,0,1-1.95-1.66l-.35-.43v.56c-.2,9.12-.94,9.58-1.09,9.58-4,0-4-29.79-4.1-47.59v-.21H7.42v18.59c0,10.29-.86,22-7.27,30.58L0,211l.23.1a7,7,0,0,1,2.16,1.64l.16.23.17-.23c5.34-7.21,7.94-17.86,7.94-32.54V164.7h34l0,3.14c.28,26.06.48,44.89,6.89,44.89,2.81-.06,3.44-3,3.79-11.22v-.12Z"/><path class="cls-2" d="M36.35,196.95l-.1-.1L33.5,198l.2.22a54.83,54.83,0,0,1,4.36,5.33l-9.31.5v-9.24H39.89v-16.2H28.75v-6.12a1.47,1.47,0,0,0,.86-.5,103.88,103.88,0,0,0,10.83-2.33,1.79,1.79,0,0,0,.47,0,1,1,0,0,0,.73-.24l.16-.16-3-2.45-.1,0c-6.25,2-17.87,3.73-26.66,4.71l-.3,0,.15.27a8.72,8.72,0,0,1,.86,2.18l0,.19.19,0c3.83-.38,8.21-.94,12.68-1.62v6h-11v16.2h11v9.38c-6.06.3-11.61.54-15.3.7H10l1.39,3.84.17,0a1.08,1.08,0,0,0,.84-.77c6.76-.36,17.19-1,27.31-1.81a27.84,27.84,0,0,1,2.39,4.63l.08.21L45,209.63l-.06-.18c-1.23-3.41-4.76-8.55-8.59-12.51m-10.73-5.13H17.55V181.44h8.08Zm3.12-10.37h8.19v10.37H28.75Z"/><path class="cls-2" d="M84,160.4a1.29,1.29,0,0,0,1.28-.71l.09-.21-4.06-1.31-.06.2c-3.37,10.51-8.86,20.92-14.34,27.16l-.11.12.1.13a29.59,29.59,0,0,1,1.58,2.51l.14.26.19-.23a69.57,69.57,0,0,0,7.06-10.15v34.62h3.24V173.28a1.22,1.22,0,0,0,1-.69l.09-.21-1.1-.29A112,112,0,0,0,84,160.4"/><path class="cls-2" d="M92.12,199.46l-.12-.09-2.47,1.71.21.17a53.83,53.83,0,0,1,8,8l.13.17,2.5-2-.12-.16a57.42,57.42,0,0,0-8.11-7.75"/><path class="cls-2" d="M114.24,192.26a1.19,1.19,0,0,0,.92-.45l2.92-.11a32.81,32.81,0,0,1,2.81,2.81l.12.14,2.52-1.77-.15-.17a54.62,54.62,0,0,0-8.91-7.38h5.36v-16h-15v-3.66h17.74v-2.89H104.81v-3.15a1.07,1.07,0,0,0,1-.85l0-.22-4.28-.26v4.49H84.48v2.89h17.09v3.66H87v16h14.62v4.13c-6.46.11-12.71.17-17.59.17H83.7l1.14,3.68.18,0a1.27,1.27,0,0,0,.92-.71c6.69-.12,16.06-.36,25.12-.64v4.18H82.66v2.94h28.41v9.81c0,.92,0,.92-3.27.92-1.18,0-2.76,0-4.59-.08l-1.74,0,.3.69a13,13,0,0,1,.81,2.21l0,.16h.17c6.09,0,7.93,0,9.31-.42,1.81-.54,2.15-1.62,2.15-3.44v-9.81h9v-2.94h-9Zm-9.43-20.37h11.85V176H104.81Zm0,6.66h11.85v4.19H104.81Zm0,6.78h6.62l-.89.55.26.18c1.09.75,2.69,1.89,4.37,3.18-3.41.1-6.87.16-10.22.21h-.13Zm-3.24-2.59H90.08v-4.19h11.5Zm0-6.72H90.08v-4.13h11.5Z"/><polygon class="cls-1" points="183.34 170.86 173.08 172.52 171.1 179.95 183.34 170.86"/><path class="cls-2" d="M194.91,207.87c-4.55-2.47-10.15-7.68-13.73-12.76h13.54v-3h-16v-5.39a1.09,1.09,0,0,0,1-.62h8.65V167.65h6.54v-3.06h-6.54v-5.45a1.07,1.07,0,0,0,1-.85l0-.22-4.21-.26v6.79H169.27v-5.45a1.07,1.07,0,0,0,1-.85l0-.22-4.16-.26v6.79h-6.9v3.06h6.9V186.1h9.37v6H160v3h13c-3.57,5.19-9.36,10.54-14.21,13.11l-.26.14.22.2a12.93,12.93,0,0,1,2,2.31l.11.18.18-.11a53.33,53.33,0,0,0,14.48-14.4v16.14h3.24V196.53a54.3,54.3,0,0,0,13.83,14l.17.11.11-.16a11.19,11.19,0,0,1,2.08-2.25l.25-.19Zm-9.73-24.72H169.27v-15.5h15.91Z"/><path class="cls-2" d="M159.4,206.62l2-2.7-.1-.12a50.36,50.36,0,0,0-6.34-6.41c2.86-6.73,4.62-15.13,5.37-25.69a1.91,1.91,0,0,0,.29-.61l0-.19-1.89-.54-.54.12h-8.71c.92-4.32,1.69-8.07,2.27-11.14.65,0,1-.29,1.09-.76l0-.21-4.17-.59-.1.54c-.69,3.69-1.48,7.87-2.37,12.15h-6.4v3.12h5.73c-1.32,6.19-3.2,14.68-4.84,20.48l0,.16,2.85,1.49.76-2.85c2.26,1.59,4.57,3.41,6.7,5.25-2.72,5.38-6.25,9.37-10.52,11.86l-.25.15.23.19a9.82,9.82,0,0,1,1.84,2.3l.11.18.18-.11a30.62,30.62,0,0,0,10.91-12.33,53.56,53.56,0,0,1,5.67,6Zm-14.27-16.81c1.22-4.9,2.55-10.64,3.76-16.21H157a73.15,73.15,0,0,1-4.69,21.56,83.24,83.24,0,0,0-7.23-5.36"/><path class="cls-2" d="M54.93,231.51a2.09,2.09,0,0,0-1-.76,3.41,3.41,0,0,0-1.27-.24,3.22,3.22,0,0,0-.76.09,2.12,2.12,0,0,0-.67.28,1.48,1.48,0,0,0-.48.51,1.45,1.45,0,0,0-.18.74,1.14,1.14,0,0,0,.45,1,4.5,4.5,0,0,0,1.12.59c.44.17.93.33,1.46.48a6.06,6.06,0,0,1,1.46.64,3.55,3.55,0,0,1,1.11,1.08,3.19,3.19,0,0,1,.45,1.79,3.93,3.93,0,0,1-.38,1.77,3.65,3.65,0,0,1-1,1.25,4.41,4.41,0,0,1-1.48.75,6.26,6.26,0,0,1-1.78.25,6.76,6.76,0,0,1-2.28-.39A4.44,4.44,0,0,1,47.83,240l1.71-1.63a2.85,2.85,0,0,0,1.09,1,3.07,3.07,0,0,0,1.43.35,3,3,0,0,0,.79-.1,2.46,2.46,0,0,0,.72-.32,1.65,1.65,0,0,0,.52-.54,1.42,1.42,0,0,0,.2-.75,1.31,1.31,0,0,0-.45-1.06,4,4,0,0,0-1.11-.63c-.44-.17-.93-.34-1.46-.49a5.94,5.94,0,0,1-1.46-.63,3.54,3.54,0,0,1-1.12-1.07,3.17,3.17,0,0,1-.45-1.78,3.35,3.35,0,0,1,.4-1.69,3.66,3.66,0,0,1,1.06-1.18,4.62,4.62,0,0,1,1.5-.7,6.52,6.52,0,0,1,1.73-.23,6.37,6.37,0,0,1,1.95.3,4.56,4.56,0,0,1,1.7,1Z"/><polygon class="cls-2" points="63.59 230.83 59.69 230.83 59.69 228.81 69.76 228.81 69.76 230.83 65.86 230.83 65.86 241.38 63.59 241.38 63.59 230.83"/><polygon class="cls-2" points="3.9 230.78 0 230.78 0 228.75 10.07 228.75 10.07 230.78 6.17 230.78 6.17 241.33 3.9 241.33 3.9 230.78"/><path class="cls-2" d="M72.6,235.15a7.18,7.18,0,0,1,.5-2.74A6,6,0,0,1,76.61,229a7.54,7.54,0,0,1,2.7-.47,7.63,7.63,0,0,1,2.73.44,6,6,0,0,1,2.14,1.32,6.12,6.12,0,0,1,1.4,2.1,7.12,7.12,0,0,1,.5,2.73,6.92,6.92,0,0,1-.5,2.68,6.18,6.18,0,0,1-1.4,2.08,6.46,6.46,0,0,1-2.14,1.36,7.69,7.69,0,0,1-2.73.51,7.51,7.51,0,0,1-2.7-.47,6,6,0,0,1-3.51-3.4,6.89,6.89,0,0,1-.5-2.68M75,235a5.36,5.36,0,0,0,.31,1.87,4.35,4.35,0,0,0,.89,1.47,4.16,4.16,0,0,0,1.38,1,4.35,4.35,0,0,0,1.79.35,4.42,4.42,0,0,0,1.8-.35,4.12,4.12,0,0,0,1.38-1,4.33,4.33,0,0,0,.89-1.47,5.36,5.36,0,0,0,.31-1.87,4.85,4.85,0,0,0-.31-1.76,4.28,4.28,0,0,0-.89-1.43,4.08,4.08,0,0,0-1.38-1,4.5,4.5,0,0,0-1.8-.34,4.43,4.43,0,0,0-1.79.34,4.12,4.12,0,0,0-1.38,1,4.29,4.29,0,0,0-.89,1.43A4.85,4.85,0,0,0,75,235"/><path class="cls-2" d="M90.23,228.81h4.42a9,9,0,0,1,1.77.17,4.66,4.66,0,0,1,1.52.58,3.07,3.07,0,0,1,1.06,1.1,3.53,3.53,0,0,1,.4,1.76,3.49,3.49,0,0,1-.76,2.29,3.3,3.3,0,0,1-2.19,1.12l3.38,5.56H97.1l-2.95-5.33H92.49v5.33H90.23Zm4,5.33c.32,0,.65,0,1,0a3.09,3.09,0,0,0,.89-.21,1.54,1.54,0,0,0,.66-.51,1.63,1.63,0,0,0,.25-1,1.52,1.52,0,0,0-.24-.89,1.43,1.43,0,0,0-.61-.51,2.89,2.89,0,0,0-.83-.22,7.78,7.78,0,0,0-.89-.05h-2v3.41Z"/><polygon class="cls-2" points="103.59 228.81 107.04 228.81 110.44 237.62 113.87 228.81 117.28 228.81 117.28 241.38 115.13 241.38 115.13 230.94 115.09 230.94 111.23 241.38 109.64 241.38 105.78 230.94 105.74 230.94 105.74 241.38 103.59 241.38 103.59 228.81"/><polygon class="cls-2" points="129.51 228.81 132.96 228.81 136.35 237.62 139.79 228.81 143.21 228.81 143.21 241.38 141.05 241.38 141.05 230.94 141.01 230.94 137.15 241.38 135.56 241.38 131.7 230.94 131.66 230.94 131.66 241.38 129.51 241.38 129.51 228.81"/><polygon class="cls-2" points="148.07 228.81 156.5 228.81 156.5 230.83 150.34 230.83 150.34 233.92 156.18 233.92 156.18 235.95 150.34 235.95 150.34 239.36 156.83 239.36 156.83 241.38 148.07 241.38 148.07 228.81"/><polygon class="cls-2" points="26.89 228.75 35.32 228.75 35.32 230.77 29.16 230.77 29.16 233.86 35 233.86 35 235.89 29.16 235.89 29.16 239.3 35.64 239.3 35.64 241.32 26.89 241.32 26.89 228.75"/><path class="cls-2" d="M161,228.81h5a7.78,7.78,0,0,1,2.43.38,5.87,5.87,0,0,1,2.07,1.16,5.69,5.69,0,0,1,1.44,2,6.68,6.68,0,0,1,.54,2.78,5.93,5.93,0,0,1-.62,2.8,6,6,0,0,1-1.6,2,6.81,6.81,0,0,1-2.18,1.16,7.67,7.67,0,0,1-2.34.38H161Zm4,10.55a8.19,8.19,0,0,0,2-.24,4.79,4.79,0,0,0,1.64-.75,3.55,3.55,0,0,0,1.11-1.31,4.38,4.38,0,0,0,.4-2,4.81,4.81,0,0,0-.36-2,3.4,3.4,0,0,0-1-1.32,4.21,4.21,0,0,0-1.51-.75,7.26,7.26,0,0,0-1.91-.24H163.3v8.53Z"/><rect class="cls-2" x="176.6" y="228.81" width="2.26" height="12.57"/><path class="cls-2" d="M187.75,228.81h2l5.48,12.57H192.6l-1.18-2.88H185.9l-1.15,2.88h-2.54Zm2.88,7.78-2-5.11-2,5.11Z"/><polygon class="cls-2" points="21.02 228.69 21.02 233.82 14.44 233.82 14.44 228.69 12.36 228.69 12.36 241.32 14.44 241.32 14.44 235.67 21.02 235.67 21.02 241.32 23.1 241.32 23.1 228.69 21.02 228.69"/></svg>