<svg id="圖層_1" data-name="圖層 1" xmlns="http://www.w3.org/2000/svg" viewBox="0 0 24 24"><defs><style>.cls-1{fill:#ff3838;}.cls-2{fill:#fff;}</style></defs><title>section2_svg3</title><circle class="cls-1" cx="12" cy="12" r="11.93"/><path class="cls-2" d="M18.44,16.66l-1.75-3A5.91,5.91,0,1,0,6.08,10a5.8,5.8,0,0,0,1.23,3.6l-1.75,3a.37.37,0,0,0,0,.29.36.36,0,0,0,.43.26l2.36-.63.63,2.35a.31.31,0,0,0,.17.21A.34.34,0,0,0,9.57,19l1.78-3.09A4.63,4.63,0,0,0,12,16a4.4,4.4,0,0,0,.64,0L14.43,19a.36.36,0,0,0,.48.13.36.36,0,0,0,.16-.21l.63-2.35,2.36.63a.34.34,0,0,0,.42-.26.33.33,0,0,0,0-.29Zm-9,1.26h0l-.5-1.87a.37.37,0,0,0-.44-.25h0l-1.85.5,1.2-2.1,0,0a5.81,5.81,0,0,0,2.8,1.57L9.39,17.92ZM12,14.78h0A4.74,4.74,0,0,1,8.65,6.69a4.73,4.73,0,0,1,6.7,0A4.74,4.74,0,0,1,12,14.78Zm3.55,1h0a.37.37,0,0,0-.44.25l-.49,1.87L13.38,15.8a5.86,5.86,0,0,0,2.8-1.57l0,0,1.21,2.1-1.87-.5ZM14.49,7.55h0a3.52,3.52,0,1,0-5,5,3.5,3.5,0,0,0,5,0,3.5,3.5,0,0,0,0-5ZM14,12h0a2.82,2.82,0,0,1-2,.82,2.81,2.81,0,0,1-2-4.81,2.82,2.82,0,0,1,2-.83,2.79,2.79,0,0,1,2,.83,2.81,2.81,0,0,1,0,4Z"/></svg>