<svg id="圖層_1" data-name="圖層 1" xmlns="http://www.w3.org/2000/svg" viewBox="0 0 24 24"><defs><style>.cls-1{fill:#ff3838;}.cls-2{fill:#fff;}</style></defs><title>section2_svg2</title><circle class="cls-1" cx="12" cy="12" r="11.93"/><path class="cls-2" d="M16.57,19h-.74l0,0c-1.57,0-5.61,0-8.43,0a2,2,0,0,1-1.93-2V5.53h11V8.31h2v8.63A2,2,0,0,1,16.57,19ZM14.2,18.3c1.43,0,2.07,0,2.37.06v0a1.35,1.35,0,0,0,1.29-1.4V9H16.52v7.49h-.64V6.18H6.14V16.94a1.35,1.35,0,0,0,1.29,1.4C10.7,18.31,12.82,18.3,14.2,18.3Z"/><path class="cls-2" d="M14.36,12.24H7.66V7.84h6.7ZM8.3,11.6h5.42V8.48H8.3Z"/><rect class="cls-2" x="7.67" y="13.81" width="6.69" height="0.64"/><rect class="cls-2" x="7.67" y="16.02" width="6.69" height="0.64"/></svg>