<svg id="圖層_1" data-name="圖層 1" xmlns="http://www.w3.org/2000/svg" viewBox="0 0 24 24"><defs><style>.cls-1{fill:#ff3838;}.cls-2{fill:#fff;}</style></defs><title>section2_svg1</title><circle class="cls-1" cx="12" cy="12" r="11.93"/><path class="cls-2" d="M5.71,12.52H8a.32.32,0,0,1,.32.32h0v5.54a.32.32,0,0,1-.32.32H5.71a.32.32,0,0,1-.32-.32h0V12.84a.32.32,0,0,1,.32-.32Zm2,.64H6v4.92H7.7V13.16ZM9.13,7.87h2.31a.32.32,0,0,1,.32.32h0V18.39a.32.32,0,0,1-.32.32H9.13a.32.32,0,0,1-.32-.32h0V8.19a.32.32,0,0,1,.32-.32Zm2,.63H9.45v9.58h1.67V8.5Zm1.44,1.82h2.31a.33.33,0,0,1,.32.33h0v7.73a.32.32,0,0,1-.32.32H12.56a.32.32,0,0,1-.33-.32h0V10.65a.33.33,0,0,1,.33-.33Zm2,.64H12.88v7.12h1.67V11ZM16,5.29h2.31a.31.31,0,0,1,.32.31h0V18.39a.32.32,0,0,1-.32.32H16a.32.32,0,0,1-.32-.32h0V5.6A.32.32,0,0,1,16,5.29Zm2,.64H16.3V18.08H18V5.93Z"/></svg>