<svg id="圖層_1" data-name="圖層 1" xmlns="http://www.w3.org/2000/svg" viewBox="0 0 55 55"><defs><style>.cls-1{fill:#ff3838;}.cls-2{fill:#fff;}</style></defs><title>section1_svg3</title><circle class="cls-1" cx="27.5" cy="27.5" r="27.43"/><path class="cls-2" d="M36.27,40.8H34.86l0-.06c-3,0-10.76,0-16.17.06A3.83,3.83,0,0,1,15,36.87V15H36.18v5.33H40V36.87A3.83,3.83,0,0,1,36.27,40.8Zm-4.54-1.32a40.73,40.73,0,0,1,4.54.12v0a2.59,2.59,0,0,0,2.47-2.69V21.55H36.18V35.91H34.94V16.22H16.26V36.87a2.59,2.59,0,0,0,2.47,2.69C25,39.51,29.08,39.48,31.73,39.48Z"/><path class="cls-2" d="M32,27.85H19.17V19.42H32ZM20.41,26.62H30.8v-6H20.41Z"/><rect class="cls-2" x="19.18" y="30.86" width="12.84" height="1.23"/><rect class="cls-2" x="19.18" y="35.1" width="12.84" height="1.23"/></svg>