<svg id="圖層_1" data-name="圖層 1" xmlns="http://www.w3.org/2000/svg" viewBox="0 0 54.86 54.86"><defs><style>.cls-1{fill:#ff3838;}.cls-2{fill:#fff;}</style></defs><title>section1_svg0</title><circle class="cls-1" cx="27.43" cy="27.43" r="27.43"/><path class="cls-2" d="M27.5,14a13.52,13.52,0,1,1-9.56,3.95A13.51,13.51,0,0,1,27.5,14Zm-.65,25.54h0v-4.6a11.89,11.89,0,0,0-3.7.76,3,3,0,0,0-.49.2l.3.59a7.7,7.7,0,0,0,2.55,2.91,11.69,11.69,0,0,0,1.34.14ZM36,19h0a3.92,3.92,0,0,0-.31-.28A12.37,12.37,0,0,1,34,19.76a21.8,21.8,0,0,1,1.34,7.08h4.15A12,12,0,0,0,36,19Zm-1.34-1.16h0a12.46,12.46,0,0,0-2.46-1.41c.34.45.66.95,1,1.46.11.24.22.45.34.67.39-.22.78-.46,1.15-.72Zm-5.19-2.21h0c-.44-.07-.88-.11-1.34-.14v4.6a11.89,11.89,0,0,0,3.7-.76c.17-.05.34-.13.49-.19-.1-.2-.2-.41-.3-.59a7.66,7.66,0,0,0-2.55-2.92Zm-2.64-.14h0c-.46,0-.9.07-1.34.14A7.66,7.66,0,0,0,23,18.54c-.1.18-.2.39-.3.59.15.06.32.14.49.19a11.89,11.89,0,0,0,3.7.76v-4.6Zm-4.07.94h0a12.46,12.46,0,0,0-2.46,1.41c.37.26.76.5,1.15.72.12-.22.23-.43.34-.67a15.41,15.41,0,0,1,1-1.46Zm-3.5,2.29h0L19,19a12,12,0,0,0-3.51,7.85h4.14A21.8,21.8,0,0,1,21,19.76a13.77,13.77,0,0,1-1.67-1.05Zm-3.81,9.45h0A12.08,12.08,0,0,0,19,36l.3.29A12.85,12.85,0,0,1,21,35.23a21.85,21.85,0,0,1-1.34-7.07Zm4.85,9h0a12.46,12.46,0,0,0,2.46,1.41,13.36,13.36,0,0,1-1-1.47l-.34-.67c-.39.22-.78.47-1.15.73Zm7.83,2.35h0a11.69,11.69,0,0,0,1.34-.14A7.7,7.7,0,0,0,32,36.47l.3-.59a2.65,2.65,0,0,0-.49-.2,11.89,11.89,0,0,0-3.7-.76v4.6Zm4.07-.94h0a12.46,12.46,0,0,0,2.46-1.41,10.62,10.62,0,0,0-1.15-.73l-.34.67a15,15,0,0,1-1,1.47Zm3.49-2.27h0L36,36a12.08,12.08,0,0,0,3.51-7.86H35.38A21.85,21.85,0,0,1,34,35.23a11.63,11.63,0,0,1,1.67,1.08Zm-2.86-16h0c-.17.09-.35.16-.54.24a14.31,14.31,0,0,1-4.16.84v5.44h5.9a20,20,0,0,0-1.2-6.52Zm-6,1.08h0a14.18,14.18,0,0,1-4.15-.84c-.19-.08-.37-.15-.55-.24a20.23,20.23,0,0,0-1.22,6.52h5.92V21.4Zm0,12.21h0V28.16H20.93a20.17,20.17,0,0,0,1.22,6.51c.18-.07.36-.16.55-.22a13.56,13.56,0,0,1,4.15-.84Zm1.3,0h0a13.56,13.56,0,0,1,4.15.84,5.72,5.72,0,0,1,.55.22,19.91,19.91,0,0,0,1.2-6.51h-5.9v5.45Z" transform="translate(-0.07 -0.07)"/></svg>