<svg id="圖層_1" data-name="圖層 1" xmlns="http://www.w3.org/2000/svg" viewBox="0 0 24 24"><defs><style>.cls-1{fill:#ff3838;}.cls-2{fill:#fff;}</style></defs><title>section2_svg5</title><circle class="cls-1" cx="12" cy="12" r="11.93"/><path class="cls-2" d="M16.39,18h0a.58.58,0,0,0,.41.18.55.55,0,0,0,.38-.15l0,0a.59.59,0,0,0,0-.8h0a.63.63,0,0,0-.41-.17h-.14l-.12.05h0a.73.73,0,0,0-.22.21.57.57,0,0,0,.08.7Zm-1.19.17H10a3.44,3.44,0,0,1-2.39-1l0,0a3.34,3.34,0,0,1-1-2.35,3.4,3.4,0,0,1,1-2.39l0,0a3.35,3.35,0,0,1,2.35-1h.39a2.34,2.34,0,0,1,.09-.24,1.77,1.77,0,0,1,.56-.6l0,0a1.79,1.79,0,0,1,.42-.2h0A1.22,1.22,0,0,1,12,10.3a1.73,1.73,0,0,1,1.2.5h0a1.64,1.64,0,0,1,.39.63H14a2.26,2.26,0,0,0,1.59-.66,2.29,2.29,0,0,0,.67-1.6,2.22,2.22,0,0,0-.67-1.58h0v0A2.31,2.31,0,0,0,14,6.93H8.8s0,.09-.05.13l0,0a1.39,1.39,0,0,1-.41.54A1.27,1.27,0,0,1,7.8,8a1.53,1.53,0,0,1-.6.12A1.67,1.67,0,0,1,6,7.57H6a1.68,1.68,0,0,1-.5-1.2A1.73,1.73,0,0,1,6,5.16H6A1.69,1.69,0,0,1,7.2,4.67a1.72,1.72,0,0,1,1.2.49h0a1.71,1.71,0,0,1,.39.63H14a3.34,3.34,0,0,1,2.38,1h0A3.38,3.38,0,0,1,14,12.56H13.6v.07a2,2,0,0,1-.3.49,1.72,1.72,0,0,1-.58.43,1.63,1.63,0,0,1-.7.15,1.71,1.71,0,0,1-1.21-.5l0,0a1.67,1.67,0,0,1-.37-.61H10a2.21,2.21,0,0,0-1.56.64l0,0a2.26,2.26,0,0,0-.66,1.59,2.29,2.29,0,0,0,.64,1.57h0a2.24,2.24,0,0,0,1.59.67H15.2a1.33,1.33,0,0,1,.15-.32,1.77,1.77,0,0,1,.67-.63h0A2.46,2.46,0,0,1,16.4,16a1.83,1.83,0,0,1,.4-.05,1.68,1.68,0,0,1,1.2.5h0a1.71,1.71,0,0,1,.49,1.19,1.68,1.68,0,0,1-.5,1.2l0,0a1.69,1.69,0,0,1-2.36,0h0a1.64,1.64,0,0,1-.39-.63Zm-3.63-5.82h0l0,0a.6.6,0,0,0,.41.16.61.61,0,0,0,.43-.19,1.4,1.4,0,0,0,.1-.16.57.57,0,0,0-.12-.62h0a.62.62,0,0,0-.41-.16.34.34,0,0,0-.15,0h0l-.14,0,0,0a.53.53,0,0,0-.18.21.56.56,0,0,0,.08.64ZM7.6,6h0a.59.59,0,0,0-.4-.17A.61.61,0,0,0,6.79,6h0a.58.58,0,0,0,0,.8.61.61,0,0,0,.41.17.45.45,0,0,0,.2,0,.58.58,0,0,0,.18-.11.51.51,0,0,0,.13-.16v0A.55.55,0,0,0,7.6,6Z"/></svg>