<svg id="圖層_1" data-name="圖層 1" xmlns="http://www.w3.org/2000/svg" viewBox="0 0 24 24"><defs><style>.cls-1{fill:#ff3838;}.cls-2{fill:#fff;}</style></defs><title>section2_svg4</title><circle class="cls-1" cx="12" cy="12" r="11.93"/><path class="cls-2" d="M10.1,7.44a.62.62,0,0,1-.86,0,.62.62,0,0,1,0-.87l2.33-2.33a.63.63,0,0,1,.87,0h0l2.31,2.32a.62.62,0,0,1,0,.87.62.62,0,0,1-.86,0L12.61,6.15v6.52l0,0a4.26,4.26,0,0,1,3-1.25h2.18L16.56,10.1a.6.6,0,0,1,0-.86.62.62,0,0,1,.87,0l2.31,2.32h0a.63.63,0,0,1,0,.88l-2.32,2.32a.63.63,0,0,1-.87,0,.6.6,0,0,1,0-.86l1.29-1.29H15.67a3.08,3.08,0,0,0-3.06,3v3.74a.6.6,0,0,1-.3.52h-.63a.61.61,0,0,1-.29-.52V15.67a3.06,3.06,0,0,0-3.05-3.06H6.15L7.44,13.9a.6.6,0,0,1,0,.86.63.63,0,0,1-.87,0L4.25,12.44a.63.63,0,0,1,0-.88h0L6.57,9.24a.62.62,0,0,1,.87,0,.6.6,0,0,1,0,.86L6.15,11.39H8.34a4.22,4.22,0,0,1,3,1.25l0,0V6.15L10.1,7.44Z"/></svg>