<svg id="圖層_1" data-name="圖層 1" xmlns="http://www.w3.org/2000/svg" viewBox="0 0 55 55"><defs><style>.cls-1{fill:#ff3838;}.cls-2{fill:#fff;}</style></defs><title>section1_svg2</title><circle class="cls-1" cx="27.5" cy="27.5" r="27.43"/><path class="cls-2" d="M31.07,25.23a6.65,6.65,0,1,0-7.14,0,13.23,13.23,0,0,0-9.64,12.7.78.78,0,0,0,.78.78H39.93a.78.78,0,0,0,.78-.78A13.23,13.23,0,0,0,31.07,25.23Zm-8.67-5.6a5.1,5.1,0,1,1,5.1,5.1h0A5.11,5.11,0,0,1,22.4,19.63ZM15.87,37.16A11.66,11.66,0,0,1,27.49,26.28h0A11.66,11.66,0,0,1,39.13,37.16Z"/></svg>