<svg id="圖層_1" data-name="圖層 1" xmlns="http://www.w3.org/2000/svg" viewBox="0 0 55 55"><defs><style>.cls-1{fill:#ff3838;}.cls-2{fill:#fff;}</style></defs><title>section1_svg1</title><circle class="cls-1" cx="27.5" cy="27.5" r="27.43"/><path class="cls-2" d="M24.32,40.82c-3.11,0-6.79,0-7,0h-.1a3,3,0,0,1-2-1.4,2.73,2.73,0,0,1-.14-2.12,3.3,3.3,0,0,1-1.47-1.56,3.54,3.54,0,0,1,.15-2.8,3.41,3.41,0,0,1-1.3-1.76,3.31,3.31,0,0,1,.33-2.46A3.22,3.22,0,0,1,11.41,25a3.4,3.4,0,0,1,2.53-2.12H22a10.76,10.76,0,0,1-1.58-4.51,3.29,3.29,0,0,1,2.13-4l.06,0a3.27,3.27,0,0,1,4,2.56A21.07,21.07,0,0,0,30,22.49a12.34,12.34,0,0,0,2.25,2.33l.29.19V38.85L32.3,39a7.43,7.43,0,0,1-4.17,1.73C27.39,40.81,25.93,40.82,24.32,40.82ZM17.38,39.5c.81,0,8.67.1,10.68,0a6.07,6.07,0,0,0,3.18-1.23V25.68A14.87,14.87,0,0,1,29,23.26a21.53,21.53,0,0,1-3.5-6.07l0-.06a2,2,0,0,0-2.5-1.63,2.08,2.08,0,0,0-1.25,2.56l0,.1a10.1,10.1,0,0,0,2,4.9l.84,1H14.05c-1,.13-1.44,1.26-1.45,1.27a2.14,2.14,0,0,0,1.29,2.48l.69.3-.42.63a2.44,2.44,0,0,0-.51,2,2.41,2.41,0,0,0,1.16,1.29l.62.28-.32.59a2.7,2.7,0,0,0-.36,2.25A2.19,2.19,0,0,0,16,36.29l.67.21-.27.65a1.87,1.87,0,0,0-.12,1.61A1.68,1.68,0,0,0,17.38,39.5Z"/><path class="cls-2" d="M41.21,39.5H37.87A2.54,2.54,0,0,1,35.33,37V27.42a2.54,2.54,0,0,1,2.54-2.54h3.34a2.54,2.54,0,0,1,2.54,2.54V37A2.54,2.54,0,0,1,41.21,39.5ZM37.87,26.15a1.27,1.27,0,0,0-1.27,1.27V37a1.27,1.27,0,0,0,1.27,1.27h3.34A1.27,1.27,0,0,0,42.48,37V27.42a1.27,1.27,0,0,0-1.27-1.27Z"/></svg>