<svg id="圖層_1" data-name="圖層 1" xmlns="http://www.w3.org/2000/svg" viewBox="0 0 55 55"><defs><style>.cls-1{fill:#ff3838;}.cls-2{fill:#fff;}</style></defs><title>section1_svg4</title><circle class="cls-1" cx="27.5" cy="27.5" r="27.43"/><path class="cls-2" d="M38,40.74a.58.58,0,0,1-.42-.16l-10-8.93-10,8.93a.63.63,0,0,1-.68.11.64.64,0,0,1-.37-.58v-22a3.74,3.74,0,0,1,3.68-3.8H34.9a3.74,3.74,0,0,1,3.68,3.8V40.11a.64.64,0,0,1-.37.58A.8.8,0,0,1,38,40.74ZM27.5,30.17a.61.61,0,0,1,.42.16l9.39,8.37V18.06a2.47,2.47,0,0,0-2.41-2.53H20.1a2.47,2.47,0,0,0-2.41,2.53V38.7l9.39-8.37A.61.61,0,0,1,27.5,30.17Z"/></svg>