<svg id="圖層_1" data-name="圖層 1" xmlns="http://www.w3.org/2000/svg" viewBox="0 0 166 52.48"><defs><style>.cls-1{fill:#fff;}</style></defs><polygon class="cls-1" points="47.89 0 12.31 5.78 5.44 31.54 47.89 0"/><polygon class="cls-1" points="3.84 37.47 0 51.97 45.97 18.48 24.65 22.02 3.84 37.47"/><path class="cls-1" d="M88.6,47.09a1.19,1.19,0,0,0-.53-.41,1.89,1.89,0,0,0-.7-.13,1.47,1.47,0,0,0-.42.05,1.11,1.11,0,0,0-.37.15.86.86,0,0,0-.26.28.76.76,0,0,0-.1.41.64.64,0,0,0,.24.54,2.46,2.46,0,0,0,.62.33l.8.27a3.35,3.35,0,0,1,.8.35,2.09,2.09,0,0,1,.62.6,1.82,1.82,0,0,1,.24,1,2.09,2.09,0,0,1-.21,1,1.88,1.88,0,0,1-.56.69,2.43,2.43,0,0,1-.82.41,3.5,3.5,0,0,1-1,.14,3.69,3.69,0,0,1-1.27-.22,2.37,2.37,0,0,1-1-.74l.94-.9a1.61,1.61,0,0,0,.6.53,1.67,1.67,0,0,0,1.22.13,1.07,1.07,0,0,0,.69-.47.88.88,0,0,0,.11-.42.73.73,0,0,0-.25-.58,2.06,2.06,0,0,0-.61-.35,8.33,8.33,0,0,0-.8-.27,3.25,3.25,0,0,1-.81-.35,2,2,0,0,1-.61-.59,2,2,0,0,1,0-1.92,1.91,1.91,0,0,1,.58-.65,2.53,2.53,0,0,1,.83-.39,4,4,0,0,1,1-.12,3.59,3.59,0,0,1,1.08.17,2.48,2.48,0,0,1,.93.54Z" transform="translate(0 -0.26)"/><polygon class="cls-1" points="93.38 46.46 91.23 46.46 91.23 45.34 96.78 45.34 96.78 46.46 94.63 46.46 94.63 52.28 93.38 52.28 93.38 46.46"/><path class="cls-1" d="M98.35,49.1a4,4,0,0,1,.27-1.48,3.32,3.32,0,0,1,1.94-1.91,4.35,4.35,0,0,1,1.48-.26,4.11,4.11,0,0,1,1.48.24,3.28,3.28,0,0,1,1.18.74,3.24,3.24,0,0,1,.74,1.16,4,4,0,0,1,.28,1.48,3.79,3.79,0,0,1-.28,1.49,3.3,3.3,0,0,1-.74,1.14,3.62,3.62,0,0,1-1.18.74,4.14,4.14,0,0,1-1.48.28,3.91,3.91,0,0,1-1.48-.26,3.35,3.35,0,0,1-1.91-1.87,3.79,3.79,0,0,1-.27-1.49M99.69,49a2.79,2.79,0,0,0,.17,1,2.36,2.36,0,0,0,.49.82,2.31,2.31,0,0,0,.74.54,2.67,2.67,0,0,0,2,0,2.34,2.34,0,0,0,1.23-1.36,2.79,2.79,0,0,0,.17-1,2.48,2.48,0,0,0-.17-1,2.33,2.33,0,0,0-.49-.79,2.26,2.26,0,0,0-.74-.52,2.67,2.67,0,0,0-2,0,2.26,2.26,0,0,0-.74.52,2.49,2.49,0,0,0-.49.79,2.68,2.68,0,0,0-.17,1" transform="translate(0 -0.26)"/><path class="cls-1" d="M108.09,45.6h2.43a5.34,5.34,0,0,1,1,.1,2.61,2.61,0,0,1,.84.32,1.7,1.7,0,0,1,.58.61,2.14,2.14,0,0,1-.21,2.23,1.83,1.83,0,0,1-1.2.62l1.86,3.07h-1.48l-1.62-3h-.94v3h-1.24Zm2.22,3h.53a1.36,1.36,0,0,0,.49-.12.85.85,0,0,0,.37-.28.92.92,0,0,0,.14-.53.79.79,0,0,0-.48-.78,1.73,1.73,0,0,0-.46-.12,4,4,0,0,0-.49,0h-1.08v1.81Z" transform="translate(0 -0.26)"/><polygon class="cls-1" points="115.45 45.34 117.36 45.34 119.23 50.21 121.13 45.34 123.01 45.34 123.01 52.28 121.82 52.28 121.82 46.52 121.8 46.52 119.67 52.28 118.8 52.28 116.66 46.52 116.64 46.52 116.64 52.28 115.45 52.28 115.45 45.34"/><polygon class="cls-1" points="129.75 45.34 131.66 45.34 133.53 50.21 135.43 45.34 137.32 45.34 137.32 52.28 136.12 52.28 136.12 46.52 136.1 46.52 133.97 52.28 133.1 52.28 130.97 46.52 130.95 46.52 130.95 52.28 129.75 52.28 129.75 45.34"/><polygon class="cls-1" points="140 45.34 144.65 45.34 144.65 46.46 141.25 46.46 141.25 48.17 144.47 48.17 144.47 49.28 141.25 49.28 141.25 51.16 144.83 51.16 144.83 52.28 140 52.28 140 45.34"/><path class="cls-1" d="M147.15,45.6h2.77a4.36,4.36,0,0,1,1.34.21,3.32,3.32,0,0,1,1.14.65,3.27,3.27,0,0,1,.8,1.08,3.66,3.66,0,0,1,.29,1.53,3.2,3.2,0,0,1-.34,1.55,3.24,3.24,0,0,1-.88,1.07,3.76,3.76,0,0,1-1.2.64,4.05,4.05,0,0,1-1.29.21h-2.62Zm2.18,5.84a4.56,4.56,0,0,0,1.11-.13,2.56,2.56,0,0,0,.9-.42,2,2,0,0,0,.61-.74,2.38,2.38,0,0,0,.22-1.08A2.66,2.66,0,0,0,152,48a1.74,1.74,0,0,0-.55-.74,2.41,2.41,0,0,0-.83-.42,4.08,4.08,0,0,0-1.05-.13H148.4v4.74Z" transform="translate(0 -0.26)"/><rect class="cls-1" x="155.74" y="45.34" width="1.25" height="6.94"/><path class="cls-1" d="M161.89,45.6H163l3,6.95h-1.43L163.92,51h-3l-.66,1.59h-1.4Zm1.59,4.3-1.08-2.82-1.11,2.82Z" transform="translate(0 -0.26)"/><path class="cls-1" d="M88.79,29.34a4.83,4.83,0,0,1-1.08-.89l-.19-.24v.3c-.11,5-.52,5.29-.6,5.29-2.23,0-2.23-16.44-2.23-26.26V7.41H62.44V17.67c0,5.68-.48,12.13-4,16.87l-.09.12.13.05a3.93,3.93,0,0,1,1.19.91l.09.13.09-.13c3-4,4.39-9.86,4.39-18V9.16H83V10.9c.16,14.38.26,24.77,3.81,24.77,1.55,0,1.9-1.65,2.09-6.18v-.07Z" transform="translate(0 -0.26)"/><path class="cls-1" d="M78.34,26.93l0-.06-1.53.61.11.12a29.77,29.77,0,0,1,2.41,3l-5.11.25v-5.1h6.15V16.78H74.17V13.4a.81.81,0,0,0,.48-.28,58.37,58.37,0,0,0,6-1.28h.26a.54.54,0,0,0,.4-.13l.09-.09-1.67-1.35h-.06a87.64,87.64,0,0,1-14.74,2.6h-.17l.08.15a4.68,4.68,0,0,1,.45,1.25v.11h.11c2.11-.21,4.53-.52,7-.89v3.3H66.3v8.93h6.08v5.19l-8.45.39h-.14l.74,2.12h.09a.61.61,0,0,0,.46-.43c3.71-.2,9.49-.57,15.07-1a15.49,15.49,0,0,1,1.32,2.56l0,.11,1.53-.74v-.1a23.08,23.08,0,0,0-4.74-6.9m-5.93-2.83H67.93V18.37h4.45Zm1.79-5.72H78.7v5.72H74.17Z" transform="translate(0 -0.26)"/><path class="cls-1" d="M104.64,6.75a.75.75,0,0,0,.75-.39l0-.11-2.23-.74v.1c-1.85,5.8-4.89,11.55-7.91,15l-.06.07.05.07c.31.45.6.91.87,1.39l.08.15.1-.13a37.45,37.45,0,0,0,3.79-5.57V35.67h1.79V13.86a.68.68,0,0,0,.58-.38l0-.12-.6-.16a62.59,62.59,0,0,0,2.68-6.45" transform="translate(0 -0.26)"/><path class="cls-1" d="M109.12,28.31l-.07,0-1.36.93.12.1a29.59,29.59,0,0,1,4.41,4.4l.07.1,1.38-1.12-.07-.09a31.6,31.6,0,0,0-4.45-4.28" transform="translate(0 -0.26)"/><path class="cls-1" d="M121.33,24.34a.68.68,0,0,0,.51-.25l1.61-.06A17.44,17.44,0,0,1,125,25.58l.06.08,1.4-1-.08-.1a30.5,30.5,0,0,0-4.92-4.07h3V11.67h-8.31v-2h9.79V8.06h-9.79V6.32a.58.58,0,0,0,.55-.47V5.73l-2.36-.15V8.06H104.9V9.65h9.44v2h-8.07v8.85h8.06V22.8c-3.57.05-7,.09-9.71.09h-.15l.63,2h.09a.67.67,0,0,0,.51-.39c3.71-.07,8.87-.2,13.87-.36v2.31H103.89v1.63h15.68v5.41c0,.5,0,.5-1.8.5-.66,0-1.53,0-2.53,0h-1l.16.39a6.61,6.61,0,0,1,.45,1.22v.09H115c3.36,0,4.37,0,5.14-.23,1-.3,1.19-.9,1.19-1.9V28.14h5V26.47h-5Zm-5.2-11.25h6.54v2.28h-6.54Zm0,3.71h6.54v2.31h-6.54Zm0,3.71h3.65l-.49.3.14.1c.6.42,1.49,1.05,2.41,1.76-1.88.06-3.79.09-5.64.12h-.07Zm-1.78-1.43H108V16.77h6.35Zm0-3.71H108V13.1h6.35Z" transform="translate(0 -0.26)"/><polygon class="cls-1" points="159.46 12.27 153.8 13.19 152.71 17.28 159.46 12.27"/><path class="cls-1" d="M165.84,33a25.6,25.6,0,0,1-7.58-7h7.48V24.26h-8.81v-3a.63.63,0,0,0,.53-.34h4.77V10.76h3.61V9.07h-3.61v-3a.59.59,0,0,0,.55-.47V5.46l-2.33-.15V9.06h-8.76v-3a.58.58,0,0,0,.55-.47V5.47L150,5.32V9.07h-3.81v1.69H150V20.94h5.19v3.32h-8.59v1.66h7.19a24.75,24.75,0,0,1-7.84,7.23l-.14.07.12.12A6.8,6.8,0,0,1,147,34.61l.06.1.09-.06a29.49,29.49,0,0,0,8-7.95v8.9h1.79V26.7a29.79,29.79,0,0,0,7.63,7.68l.09.06.06-.09a6.39,6.39,0,0,1,1.14-1.24L166,33Zm-5.37-13.64h-8.78V10.76h8.78Z" transform="translate(0 -0.26)"/><path class="cls-1" d="M146.25,32.27l1.12-1.49-.06-.11a28.54,28.54,0,0,0-3.5-3.54,44.14,44.14,0,0,0,3-14.17,1,1,0,0,0,.17-.33v-.11l-1.05-.29-.3.06H140.8c.51-2.39.93-4.45,1.25-6.15.36,0,.56-.16.6-.41V5.62l-2.3-.33-.06.3c-.38,2-.81,4.34-1.31,6.67h-3.54V14h3.16c-.74,3.42-1.76,8.1-2.67,11.31v.09l1.57.82.42-1.57c1.24.88,2.52,1.87,3.71,2.9a15.3,15.3,0,0,1-5.8,6.54l-.14.08.12.1a5.69,5.69,0,0,1,1,1.27l.06.11.09-.07a16.88,16.88,0,0,0,6-6.81,29.61,29.61,0,0,1,3.11,3.41ZM138.37,23c.68-2.7,1.41-5.88,2.08-8.95H145a40.23,40.23,0,0,1-2.59,11.87,46.37,46.37,0,0,0-4-3" transform="translate(0 -0.26)"/><polygon class="cls-1" points="60.43 46.28 58.28 46.28 58.28 45.17 63.83 45.17 63.83 46.28 61.68 46.28 61.68 52.11 60.43 52.11 60.43 46.28"/><polygon class="cls-1" points="73.12 45.17 77.77 45.17 77.77 46.28 74.37 46.28 74.37 47.99 77.59 47.99 77.59 49.11 74.37 49.11 74.37 50.99 77.95 50.99 77.95 52.11 73.12 52.11 73.12 45.17"/><polygon class="cls-1" points="69.85 45.1 69.85 47.94 66.27 47.94 66.27 45.1 65.07 45.1 65.07 52.14 66.27 52.14 66.27 49.01 69.85 49.01 69.85 52.14 71.06 52.14 71.06 45.1 69.85 45.1"/></svg>