<svg id="圖層_1" data-name="圖層 1" xmlns="http://www.w3.org/2000/svg" viewBox="0 0 48.75 4.8"><defs><style>.cls-1{fill-rule:evenodd;}</style></defs><path d="M44.34,3.79a.37.37,0,0,1,.34-.52.48.48,0,0,1,.46.74c-.32.46-1.38.7-2.34-.66C42.06,2.3,41.66.51,40.31.66c-1,.11-1,1.44-.25,1.54s.63-.75.13-.73c-.26,0-.3.12-.35.22,0-.07.07-.29.35-.29a.48.48,0,0,1,.34.11c.49.43-.11,1.12-.81.65A.93.93,0,0,1,40.4.56C42.3.44,42.22,3.08,43.58,4c1,.7,1.89-.23,1.36-.59a.43.43,0,0,0-.26-.06h0c-.41.06-.34.35-.34.43Z" transform="translate(-0.62 -0.1)"/><path d="M39.21,1.37a2.38,2.38,0,0,0-.39.93,1.78,1.78,0,0,0,2.56,1.93c.95-.51.46-1.71-.24-1.53A.45.45,0,0,0,40.8,3c-.56-.87,1-1.15,1.38-.22.69,1.63-2.23,3.12-3.5,1.12a2.5,2.5,0,0,1-.16-1.8A1.36,1.36,0,0,1,36.34.59c.27-.37,1.21-.61,1.21.19-1.08-.24-1.09,1.47.07,1.39a1.66,1.66,0,0,0,1.19-.75A2.89,2.89,0,0,1,42.14.2c2.45.5,3.58,3.31,5.92,3.73,1.27.23,1.29-1.35.25-1.37-.65,0-.29.91.07.64-.21,1-1.8-.26-.55-1a1.12,1.12,0,0,1,1.52,1.22c-.12.59-1,.94-1.68.89C43.37,4,44,.42,41.05.47a2.22,2.22,0,0,0-1.84.9Z" transform="translate(-0.62 -0.1)"/><polygon class="cls-1" points="0 1.81 35.76 1.48 36.94 2.44 0 2.25 0 1.81 0 1.81"/></svg>