<?xml version="1.0" encoding="utf-8"?>
<!-- Generator: Adobe Illustrator 24.2.1, SVG Export Plug-In . SVG Version: 6.00 Build 0)  -->
<svg version="1.1" id="圖層_1" xmlns="http://www.w3.org/2000/svg" xmlns:xlink="http://www.w3.org/1999/xlink" x="0px" y="0px"
	 viewBox="0 0 80 80" style="enable-background:new 0 0 80 80;" xml:space="preserve">
<style type="text/css">
	.st0{fill:#FFFFFF;}
	.st1{fill:#4D4D4D;}
	.st2{fill:#999999;}
</style>
<rect class="st0" width="80" height="80"/>
<path class="st1" d="M54,10c-4.9,0-9.3,1.8-12.7,4.7c0,0,0,0,0,0L24.5,31.5c-0.2,0.2-0.8,0.8-0.4,1.3c0,0,1.4,1.9,3.6,2.1
	c1.7,0.2,3.6-0.6,5.5-2.3l6.1-6.1c0.2-0.2,0.6-0.4,0.9-0.4c0.4,0,0.7,0.2,0.9,0.4c0,0,1.9,2,4.5,3.1c0.7,0.3,1.5,0.5,2.3,0.6
	c0.2,0,0.5,0.1,0.7,0.1c1.8,0,3.4-0.7,4.9-2.2c0.5-0.5,1.3-0.5,1.8,0c0.5,0.5,0.5,1.3,0,1.8c-1.5,1.5-3.2,2.4-5,2.8l12.5,12.5
	c0.4,0.4,0.7,1,0.8,1.5c0.1,0.3,0.1,0.6,0.1,0.9l4.1-4.1l0,0c3.6-3.6,5.8-8.5,5.8-13.9C73.6,18.8,64.8,10,54,10z"/>
<path class="st2" d="M35,34.4c-2.3,2.1-4.6,3.1-6.8,3.1c-0.3,0-0.5,0-0.8,0c-3.4-0.4-5.3-3-5.4-3.2c-1.4-1.9-0.2-3.9,0.7-4.7
	l15.4-15.4C34.8,11.6,30.6,10,26,10C15.2,10,6.4,18.8,6.4,29.7c0,5.8,2.5,11,6.5,14.6l8.5,8.4c0,0,0,0,0,0l16.4,16.4
	c1.2,1.2,3.2,1.2,4.4,0c1.2-1.2,1.2-3.2,0-4.4L29.6,52c-0.4-0.5-0.4-1.2,0-1.7c0.5-0.5,1.2-0.5,1.7,0L43.9,63c1.2,1.2,3.2,1.2,4.4,0
	c1.2-1.2,1.2-3.2,0-4.4L36.3,46.4l-0.5-0.5c-0.5-0.5-0.5-1.2,0-1.7c0.5-0.5,1.2-0.5,1.7,0l0.8,0.8l11.8,11.8c1.2,1.2,3.2,1.2,4.4,0
	c1.2-1.2,1.2-3.2,0-4.4l-3.3-3.3l-8.7-8.7l-0.7-0.7c-0.5-0.5-0.4-1.2,0-1.7c0.5-0.5,1.2-0.5,1.7,0l0.2,0.2l11,11l1.4,1.4
	c1.2,1.2,3.2,1.2,4.4,0c0.1-0.1,0.1-0.1,0.2-0.2c0.6-0.8,0.9-1.7,0.7-2.7c-0.1-0.6-0.4-1.1-0.8-1.5L47,32.7c-3-0.6-5.4-2.4-6.7-3.6
	L35,34.4z"/>
</svg>
