<svg id="圖層_1" data-name="圖層 1" xmlns="http://www.w3.org/2000/svg" viewBox="0 0 80 80"><defs><style>.cls-1{fill:#fff;}.cls-2{fill:#c5c5c5;}.cls-3,.cls-4{fill:none;stroke:#8c8c8c;stroke-miterlimit:10;}.cls-4{stroke-dasharray:4 4;}</style></defs><rect class="cls-1" width="80" height="80"/><path d="M10.17,72.47c-2,3.13-1.62,5.31-1.62,5.31.23,2.07,1.88,1.66,1.88,1.66,1.89-.23,1.55-2.26,1.55-2.26A7.69,7.69,0,0,0,10.17,72.47Zm-.35,5.9s-.74-.21-.23-1.28a2.94,2.94,0,0,1,.39-.7,3.16,3.16,0,0,0,.15,1.32S10.43,78.31,9.82,78.37Z"/><path d="M52.45,42.17H29.22a128,128,0,0,0-7.77,13.4,111,111,0,0,1,6.94-13.4H20.08a48.52,48.52,0,0,0-1.29,6.33c-.48-.24-.78-2.09-.78-2.09-2.33,2.81-1.91,9-1.91,9a5.46,5.46,0,0,0-3.83,2.51,19.81,19.81,0,0,1,5.2.42c.29.08.3.12.3.12-3.35,4-7.83,13-7.83,13l7.11-5.32,3.17-6.45C21.65,60.69,23,64,23,64a9.46,9.46,0,0,0,1-4.13c8.3-.53,10.33-4,10.33-4l-1.49-.54A43.94,43.94,0,0,0,52.45,42.17ZM14.77,66.55l-2.23,1.74c4.79-8.33,8.14-11.91,8.14-11.91A88,88,0,0,0,14.77,66.55Z"/><path class="cls-2" d="M60.78,21.16H46.41a138.11,138.11,0,0,0-17.19,21H52.45A48.2,48.2,0,0,0,62.64,22.39,5.21,5.21,0,0,0,60.78,21.16Z"/><path class="cls-2" d="M30.24,21.16a59,59,0,0,0-10.16,21h8.31a123.66,123.66,0,0,1,15.67-21Z"/><path class="cls-2" d="M35.52,15.46a45.28,45.28,0,0,0-5.28,5.7H44.06C51.18,13.56,60,6.43,70.57,1.88c0,0-11.25,6.32-24.16,19.28H60.78l-.47-.2a10.44,10.44,0,0,1,3.29-.24c2-9.56,9.5-20.2,9.5-20.2C52.73-3,35.52,15.46,35.52,15.46Z"/><line class="cls-3" y1="42.17" x2="2" y2="42.17"/><line class="cls-4" x1="6" y1="42.17" x2="76" y2="42.17"/><line class="cls-3" x1="78" y1="42.17" x2="80" y2="42.17"/><line class="cls-3" y1="21.16" x2="2" y2="21.16"/><line class="cls-4" x1="6" y1="21.16" x2="76" y2="21.16"/><line class="cls-3" x1="78" y1="21.16" x2="80" y2="21.16"/></svg>