<svg id="圖層_1" data-name="圖層 1" xmlns="http://www.w3.org/2000/svg" viewBox="0 0 277.33 26"><defs><style>.cls-1{fill:#fff;}.cls-2{fill-rule:evenodd;}</style></defs><rect x="52.04" width="173.25" height="26" rx="13"/><path class="cls-1" d="M78.31,13.17a2.21,2.21,0,0,1,.42.7,2.58,2.58,0,0,1,.14.88,2.55,2.55,0,0,1-.88,2,3.23,3.23,0,0,1-2.19.77,3.87,3.87,0,0,1-1.21-.19,4.34,4.34,0,0,1-1-.45l-.27.46h-.51l-.09-3.08h.51a7.69,7.69,0,0,0,.37,1,3.67,3.67,0,0,0,.57.86,2.5,2.5,0,0,0,.77.6,2.32,2.32,0,0,0,1,.22,2.26,2.26,0,0,0,.77-.12,1.28,1.28,0,0,0,.53-.32,1.44,1.44,0,0,0,.3-.49,2.16,2.16,0,0,0,.1-.65,1.77,1.77,0,0,0-.31-1,1.84,1.84,0,0,0-.91-.71l-.94-.36c-.36-.14-.66-.26-.92-.38a3.08,3.08,0,0,1-1.19-.9,2.33,2.33,0,0,1-.42-1.45,2.24,2.24,0,0,1,.21-1,2.51,2.51,0,0,1,.6-.79,2.69,2.69,0,0,1,.87-.52,3,3,0,0,1,1-.18,3,3,0,0,1,1.11.19,4.7,4.7,0,0,1,.9.44l.26-.43h.51l0,3H78c-.09-.34-.2-.67-.31-1a3.41,3.41,0,0,0-.46-.84,2,2,0,0,0-.66-.59,1.93,1.93,0,0,0-1-.22,1.49,1.49,0,0,0-1,.39,1.22,1.22,0,0,0-.42.94,1.66,1.66,0,0,0,.27,1,1.91,1.91,0,0,0,.8.63,7.67,7.67,0,0,0,.91.38c.3.11.58.23.86.35a6.45,6.45,0,0,1,.74.38A2.94,2.94,0,0,1,78.31,13.17Z" transform="translate(-4.84 -0.5)"/><path class="cls-1" d="M83.7,17c-.28.12-.54.21-.78.29a3,3,0,0,1-.9.12,1.33,1.33,0,0,1-1.11-.4,1.68,1.68,0,0,1-.32-1.12V11.68H79.46v-.61h1.15V9.13h1.16v1.94h1.79v.61H81.78v3.5a6.12,6.12,0,0,0,0,.66,1.13,1.13,0,0,0,.14.46.68.68,0,0,0,.3.28,1.4,1.4,0,0,0,.55.09l.46,0a2.22,2.22,0,0,0,.44-.07Z" transform="translate(-4.84 -0.5)"/><path class="cls-1" d="M90.25,17.19l-.52.18a2.06,2.06,0,0,1-.52.06,1.22,1.22,0,0,1-.79-.23,1.06,1.06,0,0,1-.37-.67h0a3.15,3.15,0,0,1-.89.69,2.46,2.46,0,0,1-1.14.24A1.58,1.58,0,0,1,84.83,17a1.45,1.45,0,0,1-.46-1.13,1.83,1.83,0,0,1,.1-.64,1.53,1.53,0,0,1,.31-.52,1.48,1.48,0,0,1,.42-.34,3.15,3.15,0,0,1,.49-.24l1.15-.4A7.84,7.84,0,0,0,88,13.31v-.63a3.07,3.07,0,0,0,0-.32,1.76,1.76,0,0,0-.15-.44,1.29,1.29,0,0,0-.36-.41,1.08,1.08,0,0,0-.66-.18,1.62,1.62,0,0,0-.54.1,1,1,0,0,0-.35.21A1.71,1.71,0,0,0,86,12a2,2,0,0,1,.06.46.57.57,0,0,1-.2.41.82.82,0,0,1-.56.18.48.48,0,0,1-.46-.23.87.87,0,0,1-.15-.5.9.9,0,0,1,.2-.56,2.31,2.31,0,0,1,.54-.48,3.75,3.75,0,0,1,.69-.3,2.81,2.81,0,0,1,.79-.12,5,5,0,0,1,.93.07,1.68,1.68,0,0,1,.72.32,1.47,1.47,0,0,1,.5.64,2.72,2.72,0,0,1,.16,1c0,.61,0,1.14,0,1.61s0,1,0,1.54a.87.87,0,0,0,.08.39.73.73,0,0,0,.27.25.68.68,0,0,0,.3.06h.42ZM88,13.84c-.36.11-.67.21-.94.31a4.15,4.15,0,0,0-.76.38,1.76,1.76,0,0,0-.5.52,1.3,1.3,0,0,0-.18.7,1,1,0,0,0,.27.78,1,1,0,0,0,.7.24,1.44,1.44,0,0,0,.8-.22A2.2,2.2,0,0,0,88,16Z" transform="translate(-4.84 -0.5)"/><path class="cls-1" d="M90.4,19.35a.76.76,0,0,1,.17-.52.57.57,0,0,1,.43-.2.72.72,0,0,1,.35.08.83.83,0,0,1,.26.19,2.13,2.13,0,0,1,.21.26l.17.27a2.57,2.57,0,0,0,.76-.89,7.05,7.05,0,0,0,.63-1.27c-.4-1-.76-1.9-1.09-2.69s-.66-1.61-1-2.45a.87.87,0,0,0-.41-.46,1.85,1.85,0,0,0-.57-.2v-.42h2.86v.44a2.34,2.34,0,0,0-.46.08c-.17,0-.26.11-.26.17a.53.53,0,0,0,0,.13l.06.18c.16.42.41,1,.74,1.81s.58,1.42.76,1.89c.19-.45.39-.92.6-1.4s.43-1.06.69-1.72l.12-.33a.94.94,0,0,0,.09-.36c0-.11-.1-.22-.29-.31a1.86,1.86,0,0,0-.55-.18v-.4H97v.39a1.76,1.76,0,0,0-.5.22,1.13,1.13,0,0,0-.46.53c-.51,1.17-1,2.23-1.34,3.19s-.69,1.67-.9,2.12a10.22,10.22,0,0,1-.71,1.39,4.15,4.15,0,0,1-.61.78A1.77,1.77,0,0,1,92,20a1.43,1.43,0,0,1-.49.1,1.17,1.17,0,0,1-.78-.24A.69.69,0,0,1,90.4,19.35Z" transform="translate(-4.84 -0.5)"/><path class="cls-1" d="M111,10.74h-.44a2.45,2.45,0,0,0-.2-.54,3.78,3.78,0,0,0-.34-.59,2.35,2.35,0,0,0-.41-.51.8.8,0,0,0-.44-.25l-.5,0-.55,0h-.37V16a.79.79,0,0,0,.09.38.56.56,0,0,0,.31.27,4,4,0,0,0,.48.12,4.56,4.56,0,0,0,.57.09v.45H105v-.45l.54-.06a1.79,1.79,0,0,0,.5-.09.55.55,0,0,0,.31-.24.71.71,0,0,0,.1-.41V8.79h-.86a5.07,5.07,0,0,0-.56,0,.72.72,0,0,0-.43.25,3.57,3.57,0,0,0-.42.51,4.36,4.36,0,0,0-.33.6,4.06,4.06,0,0,0-.21.53h-.44V8.3H111Z" transform="translate(-4.84 -0.5)"/><path class="cls-1" d="M116.38,11.85a1.12,1.12,0,0,1-.16.58.54.54,0,0,1-.49.25.73.73,0,0,1-.54-.18.56.56,0,0,1-.19-.41,2.11,2.11,0,0,1,0-.26,1.7,1.7,0,0,0,0-.22,1.42,1.42,0,0,0-.7.24,2.2,2.2,0,0,0-.68.68v3.65a.64.64,0,0,0,.09.36.58.58,0,0,0,.27.21,1.8,1.8,0,0,0,.41.09l.43.05v.42h-3.3v-.42l.31,0a.92.92,0,0,0,.26-.05.46.46,0,0,0,.27-.2.68.68,0,0,0,.08-.37V12.38a.92.92,0,0,0-.09-.39.76.76,0,0,0-.26-.3.78.78,0,0,0-.28-.11,2,2,0,0,0-.36-.05v-.42L113.6,11l.08.09v.88h0a2.88,2.88,0,0,1,.87-.78,1.82,1.82,0,0,1,.88-.26.86.86,0,0,1,.66.26A1,1,0,0,1,116.38,11.85Z" transform="translate(-4.84 -0.5)"/><path class="cls-1" d="M123.62,17.19l-2,.14-.1-.09v-.79h0c-.1.11-.21.22-.34.34a2.53,2.53,0,0,1-.44.33,3,3,0,0,1-.55.26,2.52,2.52,0,0,1-.75.08,1.53,1.53,0,0,1-1.27-.54,2.45,2.45,0,0,1-.43-1.57v-3a.74.74,0,0,0-.09-.38.91.91,0,0,0-.25-.27.76.76,0,0,0-.29-.11l-.36-.05v-.42l2.09-.15.09.09v4.35a1.47,1.47,0,0,0,.31,1,.92.92,0,0,0,.73.34,1.72,1.72,0,0,0,.62-.1,2.22,2.22,0,0,0,.46-.26,2.68,2.68,0,0,0,.3-.28,2.12,2.12,0,0,0,.2-.28V12.31a.75.75,0,0,0-.09-.37.83.83,0,0,0-.25-.28.73.73,0,0,0-.34-.09l-.5,0v-.42l2.27-.15.1.09v5a.69.69,0,0,0,.09.36.77.77,0,0,0,.25.26.66.66,0,0,0,.27.1l.35,0Z" transform="translate(-4.84 -0.5)"/><path class="cls-1" d="M130,15.83a3.25,3.25,0,0,1-1.06,1.2,2.68,2.68,0,0,1-1.51.44,3.22,3.22,0,0,1-1.33-.26,2.5,2.5,0,0,1-.93-.73,3,3,0,0,1-.55-1.06,4.57,4.57,0,0,1-.18-1.29,3.77,3.77,0,0,1,.19-1.2,3.5,3.5,0,0,1,.57-1.06,2.66,2.66,0,0,1,.9-.72,2.5,2.5,0,0,1,1.2-.28,2.75,2.75,0,0,1,1.17.22,2.09,2.09,0,0,1,.8.59,2.26,2.26,0,0,1,.43.83,3.56,3.56,0,0,1,.14,1.05V14h-4.14a4.81,4.81,0,0,0,.12,1.12,2.6,2.6,0,0,0,.37.88,1.76,1.76,0,0,0,.65.59,2,2,0,0,0,.95.21,1.72,1.72,0,0,0,1-.27,2.44,2.44,0,0,0,.79-1Zm-1.41-2.38a5.17,5.17,0,0,0-.06-.76,2.3,2.3,0,0,0-.19-.68,1.31,1.31,0,0,0-.4-.47,1,1,0,0,0-.65-.19,1.36,1.36,0,0,0-1.11.56,2.57,2.57,0,0,0-.48,1.54Z" transform="translate(-4.84 -0.5)"/><path class="cls-1" d="M144.34,14.63l-.19,2.68h-7v-.45l.44-.05a1.6,1.6,0,0,0,.4-.08.61.61,0,0,0,.28-.24.83.83,0,0,0,.08-.41V9.63a.92.92,0,0,0-.07-.38A.55.55,0,0,0,138,9a1.75,1.75,0,0,0-.41-.14,2.37,2.37,0,0,0-.43-.09V8.3h3.8v.45a3.42,3.42,0,0,0-.46.06,3.07,3.07,0,0,0-.41.11.44.44,0,0,0-.29.26.85.85,0,0,0-.08.39v6a3.73,3.73,0,0,0,0,.65.58.58,0,0,0,.19.36,1,1,0,0,0,.44.15c.19,0,.46,0,.8,0h.49l.49-.05a2.75,2.75,0,0,0,.41-.11.6.6,0,0,0,.27-.17,5.33,5.33,0,0,0,.61-.88,7,7,0,0,0,.48-1Z" transform="translate(-4.84 -0.5)"/><path class="cls-1" d="M150.89,14.11a4.11,4.11,0,0,1-.21,1.3,3,3,0,0,1-.59,1.08,2.87,2.87,0,0,1-1,.76,3.35,3.35,0,0,1-1.3.25,2.93,2.93,0,0,1-1.13-.23,3,3,0,0,1-1-.65,3.08,3.08,0,0,1-.66-1,3.77,3.77,0,0,1-.24-1.38,3.42,3.42,0,0,1,.85-2.4,3.13,3.13,0,0,1,4.41,0A3.23,3.23,0,0,1,150.89,14.11Zm-1.31,0a6,6,0,0,0-.09-1,3.4,3.4,0,0,0-.29-.9,1.94,1.94,0,0,0-.53-.63,1.38,1.38,0,0,0-.81-.24,1.43,1.43,0,0,0-.84.24,1.73,1.73,0,0,0-.56.66,3,3,0,0,0-.29.89,6.41,6.41,0,0,0-.08.95,5.66,5.66,0,0,0,.1,1.13,3.11,3.11,0,0,0,.31.92,1.74,1.74,0,0,0,.55.64,1.32,1.32,0,0,0,.81.23,1.41,1.41,0,0,0,1.26-.76A4.12,4.12,0,0,0,149.58,14.13Z" transform="translate(-4.84 -0.5)"/><path class="cls-1" d="M157.9,14.11a4.11,4.11,0,0,1-.21,1.3,3.11,3.11,0,0,1-.59,1.08,3,3,0,0,1-1,.76,3.38,3.38,0,0,1-1.3.25,2.91,2.91,0,0,1-2.09-.88,3.08,3.08,0,0,1-.66-1,3.57,3.57,0,0,1-.25-1.38,3.43,3.43,0,0,1,.86-2.4,3.13,3.13,0,0,1,4.41,0A3.23,3.23,0,0,1,157.9,14.11Zm-1.31,0a5.16,5.16,0,0,0-.1-1,3.41,3.41,0,0,0-.28-.9,1.85,1.85,0,0,0-.54-.63,1.33,1.33,0,0,0-.8-.24,1.43,1.43,0,0,0-.84.24,1.73,1.73,0,0,0-.56.66,3,3,0,0,0-.29.89,6.41,6.41,0,0,0-.08.95,5.66,5.66,0,0,0,.1,1.13,3.11,3.11,0,0,0,.31.92,1.72,1.72,0,0,0,.54.64,1.35,1.35,0,0,0,.82.23,1.41,1.41,0,0,0,1.25-.76A4.11,4.11,0,0,0,156.59,14.13Z" transform="translate(-4.84 -0.5)"/><path class="cls-1" d="M165.44,17.31h-1.89c-.33-.48-.69-1-1.06-1.54s-.77-1.07-1.18-1.59l-.52.49v1.48a.86.86,0,0,0,.08.38.54.54,0,0,0,.27.22l.29.09.33.05v.42h-3.07v-.42l.3,0a1.46,1.46,0,0,0,.27-.05.44.44,0,0,0,.26-.2.68.68,0,0,0,.09-.37V9a1,1,0,0,0-.1-.44.75.75,0,0,0-.26-.32.86.86,0,0,0-.41-.13l-.46,0V7.62l2.32-.14.09.1V14.2l1.07-1.07c.38-.37.71-.71,1-1l.11-.15a.29.29,0,0,0,.06-.15c0-.11-.09-.2-.28-.25a3.84,3.84,0,0,0-.52-.12v-.4H165v.39a4.29,4.29,0,0,0-.94.4,3.53,3.53,0,0,0-.63.43,4.69,4.69,0,0,0-.43.41l-.78.75c.34.42.73.94,1.17,1.53s.75,1,.95,1.3a1.61,1.61,0,0,0,.5.49,1.86,1.86,0,0,0,.65.14Z" transform="translate(-4.84 -0.5)"/><path class="cls-1" d="M178.59,13.11a2.19,2.19,0,0,1,.65.7,2,2,0,0,1,.26,1,2.12,2.12,0,0,1-.27,1.09,2.35,2.35,0,0,1-.71.76,3.25,3.25,0,0,1-1,.44,3.77,3.77,0,0,1-1.11.16h-4.26v-.45l.44-.06a1.84,1.84,0,0,0,.42-.1.59.59,0,0,0,.28-.23.87.87,0,0,0,.08-.39V9.61a.89.89,0,0,0-.07-.38.59.59,0,0,0-.29-.27,2.41,2.41,0,0,0-.43-.15l-.39-.06V8.3h4.16a4.56,4.56,0,0,1,.92.09,2.91,2.91,0,0,1,.84.34,1.87,1.87,0,0,1,.62.6,1.74,1.74,0,0,1,.24.93,2.08,2.08,0,0,1-.17.85,2,2,0,0,1-.48.64,2.71,2.71,0,0,1-.67.42,3.76,3.76,0,0,1-.82.27v.06a4.84,4.84,0,0,1,.87.2A2.68,2.68,0,0,1,178.59,13.11Zm-1.54-1.36a1.48,1.48,0,0,0,.33-.6,2.86,2.86,0,0,0,.09-.77,1.6,1.6,0,0,0-.4-1.16,1.72,1.72,0,0,0-1.28-.43h-.51l-.52,0v3.47h.81a2.64,2.64,0,0,0,.89-.14A1.38,1.38,0,0,0,177.05,11.75Zm.89,2.88a1.75,1.75,0,0,0-.54-1.32,2.14,2.14,0,0,0-1.53-.51h-.69l-.42,0V16a.65.65,0,0,0,.33.6,1.62,1.62,0,0,0,.9.2,1.83,1.83,0,0,0,1.44-.55A2.31,2.31,0,0,0,177.94,14.63Z" transform="translate(-4.84 -0.5)"/><path class="cls-1" d="M186.1,15.83a3.22,3.22,0,0,1-1,1.2,2.71,2.71,0,0,1-1.52.44,3.17,3.17,0,0,1-1.32-.26,2.54,2.54,0,0,1-.94-.73,3,3,0,0,1-.55-1.06,4.57,4.57,0,0,1-.18-1.29,3.77,3.77,0,0,1,.19-1.2,3.5,3.5,0,0,1,.57-1.06,2.66,2.66,0,0,1,.9-.72,2.53,2.53,0,0,1,1.2-.28,2.83,2.83,0,0,1,1.18.22,2.06,2.06,0,0,1,.79.59,2.26,2.26,0,0,1,.43.83,3.55,3.55,0,0,1,.15,1.05V14H181.8a4.81,4.81,0,0,0,.12,1.12,2.6,2.6,0,0,0,.37.88,1.84,1.84,0,0,0,.65.59,2,2,0,0,0,.95.21,1.76,1.76,0,0,0,1-.27,2.63,2.63,0,0,0,.79-1Zm-1.4-2.38a5.17,5.17,0,0,0-.06-.76,2.28,2.28,0,0,0-.2-.68,1.21,1.21,0,0,0-.4-.47,1,1,0,0,0-.65-.19,1.38,1.38,0,0,0-1.11.56,2.63,2.63,0,0,0-.48,1.54Z" transform="translate(-4.84 -0.5)"/><path class="cls-1" d="M186.35,19.35a.81.81,0,0,1,.17-.52.57.57,0,0,1,.44-.2.78.78,0,0,1,.35.08,1.15,1.15,0,0,1,.26.19,2.17,2.17,0,0,1,.2.26l.17.27a2.57,2.57,0,0,0,.76-.89,7.18,7.18,0,0,0,.64-1.27c-.41-1-.77-1.9-1.09-2.69s-.67-1.61-1-2.45a.9.9,0,0,0-.4-.46,1.85,1.85,0,0,0-.57-.2v-.42h2.85v.44a2.26,2.26,0,0,0-.45.08c-.18,0-.27.11-.27.17a.53.53,0,0,0,0,.13l.06.18c.16.42.41,1,.74,1.81s.58,1.42.76,1.89c.2-.45.39-.92.6-1.4s.43-1.06.69-1.72c0-.08.07-.19.13-.33a1.13,1.13,0,0,0,.08-.36c0-.11-.1-.22-.29-.31a1.86,1.86,0,0,0-.55-.18v-.4H193v.39a1.68,1.68,0,0,0-.51.22,1.19,1.19,0,0,0-.46.53c-.5,1.17-1,2.23-1.34,3.19s-.69,1.67-.89,2.12a11.34,11.34,0,0,1-.72,1.39,4.15,4.15,0,0,1-.61.78,1.77,1.77,0,0,1-.53.36,1.38,1.38,0,0,1-.49.1,1.17,1.17,0,0,1-.78-.24A.69.69,0,0,1,186.35,19.35Z" transform="translate(-4.84 -0.5)"/><path class="cls-1" d="M199.33,14.11a4.11,4.11,0,0,1-.21,1.3,3,3,0,0,1-.6,1.08,2.79,2.79,0,0,1-1,.76,3.3,3.3,0,0,1-1.29.25,3,3,0,0,1-2.1-.88,3.43,3.43,0,0,1-.66-1,3.77,3.77,0,0,1-.24-1.38,3.42,3.42,0,0,1,.85-2.4,3.13,3.13,0,0,1,4.41,0A3.24,3.24,0,0,1,199.33,14.11Zm-1.32,0a6,6,0,0,0-.09-1,3.07,3.07,0,0,0-.29-.9,1.72,1.72,0,0,0-.53-.63,1.34,1.34,0,0,0-.81-.24,1.4,1.4,0,0,0-.83.24,1.76,1.76,0,0,0-.57.66,3,3,0,0,0-.28.89,5.34,5.34,0,0,0-.09.95,6.51,6.51,0,0,0,.1,1.13,3.12,3.12,0,0,0,.32.92,1.64,1.64,0,0,0,.54.64,1.34,1.34,0,0,0,.81.23,1.41,1.41,0,0,0,1.26-.76A4.12,4.12,0,0,0,198,14.13Z" transform="translate(-4.84 -0.5)"/><path class="cls-1" d="M207.14,17.31h-3.06v-.42l.32,0a1,1,0,0,0,.29-.05.46.46,0,0,0,.27-.2.78.78,0,0,0,.08-.37V13a1.53,1.53,0,0,0-.31-1,1,1,0,0,0-.77-.36,1.75,1.75,0,0,0-.62.11,2.25,2.25,0,0,0-.49.25,1.51,1.51,0,0,0-.34.32,3.11,3.11,0,0,0-.18.27v3.6a.63.63,0,0,0,.09.35.54.54,0,0,0,.27.22,1.31,1.31,0,0,0,.28.09l.33.05v.42h-3.07v-.42l.3,0a1.08,1.08,0,0,0,.27-.05.41.41,0,0,0,.26-.2.68.68,0,0,0,.09-.37V12.38a.9.9,0,0,0-.09-.4.73.73,0,0,0-.26-.29.78.78,0,0,0-.28-.11,2,2,0,0,0-.36-.05v-.42l2.08-.14.09.09v.88h0l.38-.36a5.14,5.14,0,0,1,.43-.35,2.63,2.63,0,0,1,.56-.25,2.39,2.39,0,0,1,.73-.1,1.58,1.58,0,0,1,1.34.56,2.36,2.36,0,0,1,.43,1.49v3.26a.74.74,0,0,0,.08.36.51.51,0,0,0,.26.21l.26.09.31,0Z" transform="translate(-4.84 -0.5)"/><path class="cls-1" d="M214.77,17.19l-2.19.14-.1-.09v-.58h0a2.76,2.76,0,0,1-.81.6,2.25,2.25,0,0,1-1,.23,2.31,2.31,0,0,1-1-.23,2.71,2.71,0,0,1-.87-.67,3.2,3.2,0,0,1-.59-1.06,3.92,3.92,0,0,1-.22-1.36,3.63,3.63,0,0,1,.23-1.28,3.48,3.48,0,0,1,.65-1.07,3,3,0,0,1,1-.68,2.7,2.7,0,0,1,1.14-.25,3.12,3.12,0,0,1,.86.11,3.27,3.27,0,0,1,.73.28V9.09a1.3,1.3,0,0,0-.09-.49.71.71,0,0,0-.25-.33,1.34,1.34,0,0,0-.48-.18L211,8V7.62l2.57-.14.09.1V16a.74.74,0,0,0,.09.38.69.69,0,0,0,.25.26.73.73,0,0,0,.35.1l.42,0Zm-2.3-1.1V12.43a1.6,1.6,0,0,0-.17-.35,1.35,1.35,0,0,0-.28-.35,1.57,1.57,0,0,0-.43-.27,1.5,1.5,0,0,0-.58-.1,1.24,1.24,0,0,0-.7.2,2,2,0,0,0-.57.56,3.08,3.08,0,0,0-.37.91,5,5,0,0,0-.13,1.21,4.13,4.13,0,0,0,.1,1,2.63,2.63,0,0,0,.34.81,1.82,1.82,0,0,0,.57.57,1.54,1.54,0,0,0,.82.21,1.46,1.46,0,0,0,.84-.22A2.7,2.7,0,0,0,212.47,16.09Z" transform="translate(-4.84 -0.5)"/><path d="M41.24,14.58a.31.31,0,0,1,.28-.44.4.4,0,0,1,.38.62c-.26.38-1.14.58-1.95-.55-.61-.87-1-2.37-2.07-2.24-.84.09-.84,1.2-.21,1.28s.52-.62.11-.61c-.22,0-.25.1-.29.19,0-.06.06-.24.29-.25a.36.36,0,0,1,.28.1c.41.35-.09.93-.67.54A.77.77,0,0,1,38,11.88c1.58-.1,1.52,2.11,2.65,2.88.85.58,1.58-.19,1.13-.49a.31.31,0,0,0-.22-.06h0a.29.29,0,0,0-.27.37Z" transform="translate(-4.84 -0.5)"/><path d="M37,12.56a2,2,0,0,0-.32.77,1.49,1.49,0,0,0,2.13,1.61c.79-.43.39-1.43-.2-1.27a.37.37,0,0,0-.28.28c-.47-.72.81-1,1.14-.18.58,1.35-1.85,2.6-2.91.93a2.06,2.06,0,0,1-.13-1.5,1.13,1.13,0,0,1-1.82-1.29c.23-.31,1-.51,1,.16-.89-.21-.91,1.22.06,1.16a1.43,1.43,0,0,0,1-.63,2.41,2.41,0,0,1,2.78-1c2,.42,3,2.76,4.92,3.11,1.06.19,1.08-1.12.21-1.14-.54,0-.24.76.06.53-.18.8-1.5-.21-.46-.79a.94.94,0,0,1,1.27,1c-.11.49-.81.78-1.4.74-3.58-.29-3.1-3.28-5.51-3.24a1.87,1.87,0,0,0-1.54.75Z" transform="translate(-4.84 -0.5)"/><polygon class="cls-2" points="0 12.51 29.77 12.23 30.75 13.03 0 12.88 0 12.51 0 12.51"/><path d="M245.76,14.58a.31.31,0,0,0-.28-.44.4.4,0,0,0-.38.62c.26.38,1.15.58,2-.55.61-.87.95-2.37,2.07-2.24.84.09.84,1.2.21,1.28s-.52-.63-.11-.61c.22,0,.25.1.29.19,0-.06-.06-.24-.29-.24a.33.33,0,0,0-.28.09c-.41.35.09.93.67.54a.77.77,0,0,0-.56-1.34c-1.58-.1-1.52,2.11-2.65,2.88-.85.58-1.58-.19-1.13-.49a.31.31,0,0,1,.22-.06h0a.29.29,0,0,1,.27.37Z" transform="translate(-4.84 -0.5)"/><path d="M250,12.56a1.85,1.85,0,0,1,.32.77,1.49,1.49,0,0,1-2.13,1.61c-.79-.43-.38-1.43.2-1.27a.35.35,0,0,1,.28.28c.47-.72-.81-1-1.14-.18-.58,1.35,1.85,2.6,2.91.93a2.06,2.06,0,0,0,.13-1.5,1.13,1.13,0,0,0,1.82-1.29c-.23-.31-1-.51-1,.16.89-.21.91,1.22-.06,1.16a1.43,1.43,0,0,1-1-.63,2.41,2.41,0,0,0-2.78-1c-2,.42-3,2.76-4.92,3.11-1.06.19-1.08-1.12-.21-1.14.54,0,.24.76-.06.53.18.8,1.5-.21.46-.79a.94.94,0,0,0-1.27,1c.11.49.81.78,1.4.74,3.58-.29,3.1-3.28,5.51-3.24a1.87,1.87,0,0,1,1.54.75Z" transform="translate(-4.84 -0.5)"/><polygon class="cls-2" points="277.33 12.51 247.55 12.23 246.57 13.03 277.33 12.88 277.33 12.51 277.33 12.51"/></svg>